<svg width="8" height="12" viewBox="0 0 8 12" fill="none" xmlns="http://www.w3.org/2000/svg">
<path d="M1.04845 0.191807L0.652643 0.584883C0.529033 0.708591 0.460934 0.873178 0.460934 1.04908C0.460934 1.22489 0.529032 1.38967 0.652643 1.51338L5.13678 5.99732L0.647666 10.4864C0.524055 10.6099 0.456055 10.7747 0.456055 10.9505C0.456055 11.1263 0.524055 11.2912 0.647666 11.4148L1.04104 11.808C1.29684 12.064 1.71353 12.064 1.96934 11.808L7.33338 6.46318C7.45689 6.33966 7.54392 6.17508 7.54392 5.99771L7.54392 5.99566C7.54392 5.81976 7.4568 5.65517 7.33338 5.53166L1.98387 0.191807C1.86036 0.0680987 1.6908 0.000195285 1.51499 1.38863e-07C1.33909 1.15796e-07 1.17187 0.0680986 1.04845 0.191807Z" fill="black"/>
</svg>
